<svg width="145" height="145" viewBox="0 0 145 145" fill="none" xmlns="http://www.w3.org/2000/svg">
<rect width="145" height="145" rx="72.5" fill="black" fill-opacity="0.58"/>
<path d="M28.925 31H21.2875C14.2375 31 14.2375 41 21.2875 41H28.925C35.975 41 35.975 31 28.925 31Z" fill="#FF76B8"/>
<path d="M57.7125 45.4444L30.1 45.4445C23.05 45.4445 23.05 55.4445 30.1 55.4445L57.7125 55.4444C64.7625 55.4444 64.7625 45.4444 57.7125 45.4444Z" fill="#FF76B8"/>
<path d="M48.9 61H38.325C31.275 61 31.275 71 38.325 71H48.9C55.95 71 55.95 61 48.9 61Z" fill="#FF76B8"/>
<path d="M92.8572 45.9609H80.8572C74 45.9609 74 56.3184 80.8572 56.3184H92.8572C99.7143 56.3184 99.7143 45.9609 92.8572 45.9609Z" fill="#FFA66F"/>
<path d="M65.4286 77.6089H47.7143C40.8572 77.6089 40.8571 87.9665 47.7143 87.9665H65.4286C72.2857 87.9665 72.2857 77.6089 65.4286 77.6089Z" fill="#FFA66F"/>
<path d="M43.1429 31H53.4286C60.2857 31 60.2857 41.3575 53.4286 41.3575H43.1429C36.2857 41.3575 36.2857 31 43.1429 31Z" fill="#FFA66F"/>
<path d="M86.5714 93.1453H75.7143C68.8571 93.1453 68.8571 103.503 75.7143 103.503H86.5714C93.4285 103.503 93.4286 93.1453 86.5714 93.1453Z" fill="#FFA66F"/>
<path d="M86.5714 108.106H56.8571C50 108.106 50 118.464 56.8571 118.464H86.5714C93.4285 118.464 93.4286 108.106 86.5714 108.106Z" fill="#FFA66F"/>
<path d="M71.7143 123.642H56.8571C50 123.642 50 134 56.8571 134H71.7143C78.5714 134 78.5714 123.642 71.7143 123.642Z" fill="#FFA66F"/>
<path d="M79.1429 62.0726H62C55.1429 62.0726 55.1428 72.4302 62 72.4302H79.1429C86 72.4302 86 62.0726 79.1429 62.0726Z" fill="#FFA66F"/>
<path d="M121.818 31H87.2728C80.3637 31 80.3637 41.3575 87.2728 41.3575H121.818C128.727 41.3575 128.727 31 121.818 31Z" fill="#FF5A54"/>
<path d="M95.3334 77.6089H78.0606C71.1515 77.6089 71.1515 87.9665 78.0606 87.9665L95.3334 87.9665C102.242 87.9665 102.242 77.6089 95.3334 77.6089Z" fill="#FF5A54"/>
<path d="M105.121 62.0726L91.3031 62.0726C84.3939 62.0726 84.3939 72.4302 91.3031 72.4302H105.121C112.03 72.4302 112.03 62.0726 105.121 62.0726Z" fill="#FF5A54"/>
<path d="M112.606 45.9609L105.121 45.9609C98.2121 45.9609 98.2121 56.3184 105.121 56.3184H112.606C119.515 56.3184 119.515 45.9609 112.606 45.9609Z" fill="#FF5A54"/>
<path d="M60.2121 93.1452L56.1818 93.1453C49.2727 93.1453 49.2727 103.503 56.1818 103.503H60.2121C67.1212 103.503 67.1212 93.1452 60.2121 93.1452Z" fill="#FF5A54"/>
<path d="M86.697 123.642H85.5455C78.6364 123.642 78.6363 134 85.5455 134H86.697C93.606 134 93.6061 123.642 86.697 123.642Z" fill="#FF5A54"/>
</svg>
