<svg width="532" height="114" viewBox="0 0 532 114" fill="none" xmlns="http://www.w3.org/2000/svg">
<mask id="path-1-outside-1_3_85" maskUnits="userSpaceOnUse" x="10" y="19" width="509" height="76" fill="black">
<rect fill="white" x="10" y="19" width="509" height="76"/>
<path d="M40.4062 88V66.551L19.2242 25.7H32.3072L45.4792 52.4H47.0812L60.2532 25.7H73.3362L52.1542 66.551V88H40.4062ZM101.612 89.246C93.7798 89.246 87.5498 87.11 82.9218 82.838C78.2938 78.5067 75.9798 72.336 75.9798 64.326V49.374C75.9798 41.364 78.2938 35.223 82.9218 30.951C87.5498 26.6197 93.7798 24.454 101.612 24.454C109.444 24.454 115.674 26.6197 120.302 30.951C124.93 35.223 127.244 41.364 127.244 49.374V64.326C127.244 72.336 124.93 78.5067 120.302 82.838C115.674 87.11 109.444 89.246 101.612 89.246ZM101.612 78.744C106.002 78.744 109.414 77.4683 111.847 74.917C114.279 72.3657 115.496 68.954 115.496 64.682V49.018C115.496 44.746 114.279 41.3343 111.847 38.783C109.414 36.2317 106.002 34.956 101.612 34.956C97.2805 34.956 93.8688 36.2317 91.3768 38.783C88.9441 41.3343 87.7278 44.746 87.7278 49.018V64.682C87.7278 68.954 88.9441 72.3657 91.3768 74.917C93.8688 77.4683 97.2805 78.744 101.612 78.744ZM137.548 88V25.7H159.887L172.258 79.99H173.86V25.7H185.43V88H163.091L150.72 33.71H149.118V88H137.548ZM192.899 88L209.275 25.7H229.745L246.121 88H234.017L230.635 74.294H208.385L205.003 88H192.899ZM211.144 63.436H227.876L220.311 33.087H218.709L211.144 63.436ZM253.579 88V25.7H265.327V51.421H288.467V25.7H300.215V88H288.467V62.101H265.327V88H253.579ZM329.268 88L345.644 25.7H366.114L382.49 88H370.386L367.004 74.294H344.754L341.372 88H329.268ZM347.513 63.436H364.245L356.68 33.087H355.078L347.513 63.436ZM397.432 88L381.59 25.7H393.694L406.866 80.435H408.112L421.284 25.7H433.388L417.546 88H397.432ZM440.878 88V25.7H452.626V88H440.878ZM475.915 88L460.073 25.7H472.177L485.349 80.435H486.595L499.767 25.7H511.871L496.029 88H475.915Z"/>
</mask>
<path d="M40.4062 88V66.551L19.2242 25.7H32.3072L45.4792 52.4H47.0812L60.2532 25.7H73.3362L52.1542 66.551V88H40.4062ZM101.612 89.246C93.7798 89.246 87.5498 87.11 82.9218 82.838C78.2938 78.5067 75.9798 72.336 75.9798 64.326V49.374C75.9798 41.364 78.2938 35.223 82.9218 30.951C87.5498 26.6197 93.7798 24.454 101.612 24.454C109.444 24.454 115.674 26.6197 120.302 30.951C124.93 35.223 127.244 41.364 127.244 49.374V64.326C127.244 72.336 124.93 78.5067 120.302 82.838C115.674 87.11 109.444 89.246 101.612 89.246ZM101.612 78.744C106.002 78.744 109.414 77.4683 111.847 74.917C114.279 72.3657 115.496 68.954 115.496 64.682V49.018C115.496 44.746 114.279 41.3343 111.847 38.783C109.414 36.2317 106.002 34.956 101.612 34.956C97.2805 34.956 93.8688 36.2317 91.3768 38.783C88.9441 41.3343 87.7278 44.746 87.7278 49.018V64.682C87.7278 68.954 88.9441 72.3657 91.3768 74.917C93.8688 77.4683 97.2805 78.744 101.612 78.744ZM137.548 88V25.7H159.887L172.258 79.99H173.86V25.7H185.43V88H163.091L150.72 33.71H149.118V88H137.548ZM192.899 88L209.275 25.7H229.745L246.121 88H234.017L230.635 74.294H208.385L205.003 88H192.899ZM211.144 63.436H227.876L220.311 33.087H218.709L211.144 63.436ZM253.579 88V25.7H265.327V51.421H288.467V25.7H300.215V88H288.467V62.101H265.327V88H253.579ZM329.268 88L345.644 25.7H366.114L382.49 88H370.386L367.004 74.294H344.754L341.372 88H329.268ZM347.513 63.436H364.245L356.68 33.087H355.078L347.513 63.436ZM397.432 88L381.59 25.7H393.694L406.866 80.435H408.112L421.284 25.7H433.388L417.546 88H397.432ZM440.878 88V25.7H452.626V88H440.878ZM475.915 88L460.073 25.7H472.177L485.349 80.435H486.595L499.767 25.7H511.871L496.029 88H475.915Z" fill="white"/>
<path d="M40.4062 88H35.4062V93H40.4062V88ZM40.4062 66.551H45.4062V65.3318L44.845 64.2494L40.4062 66.551ZM19.2242 25.7V20.7H10.9994L14.7854 28.0016L19.2242 25.7ZM32.3072 25.7L36.7912 23.4879L35.4159 20.7H32.3072V25.7ZM45.4792 52.4L40.9952 54.6121L42.3705 57.4H45.4792V52.4ZM47.0812 52.4V57.4H50.1899L51.5652 54.6121L47.0812 52.4ZM60.2532 25.7V20.7H57.1445L55.7692 23.4879L60.2532 25.7ZM73.3362 25.7L77.775 28.0016L81.561 20.7H73.3362V25.7ZM52.1542 66.551L47.7154 64.2494L47.1542 65.3318V66.551H52.1542ZM52.1542 88V93H57.1542V88H52.1542ZM45.4062 88V66.551H35.4062V88H45.4062ZM44.845 64.2494L23.663 23.3984L14.7854 28.0016L35.9674 68.8526L44.845 64.2494ZM19.2242 30.7H32.3072V20.7H19.2242V30.7ZM27.8232 27.9121L40.9952 54.6121L49.9632 50.1879L36.7912 23.4879L27.8232 27.9121ZM45.4792 57.4H47.0812V47.4H45.4792V57.4ZM51.5652 54.6121L64.7372 27.9121L55.7692 23.4879L42.5972 50.1879L51.5652 54.6121ZM60.2532 30.7H73.3362V20.7H60.2532V30.7ZM68.8974 23.3984L47.7154 64.2494L56.593 68.8526L77.775 28.0016L68.8974 23.3984ZM47.1542 66.551V88H57.1542V66.551H47.1542ZM52.1542 83H40.4062V93H52.1542V83ZM82.9218 82.838L79.5052 86.4886L79.5177 86.5004L79.5304 86.512L82.9218 82.838ZM82.9218 30.951L86.3132 34.625L86.3258 34.6134L86.3384 34.6016L82.9218 30.951ZM120.302 30.951L116.885 34.6016L116.898 34.6134L116.91 34.625L120.302 30.951ZM120.302 82.838L123.693 86.512L123.706 86.5004L123.718 86.4886L120.302 82.838ZM111.847 74.917L108.228 71.4666L108.228 71.4666L111.847 74.917ZM111.847 38.783L108.228 42.2334L108.228 42.2334L111.847 38.783ZM91.3768 38.783L87.7999 35.2893L87.7789 35.3108L87.7581 35.3326L91.3768 38.783ZM91.3768 74.917L87.7581 78.3674L87.7789 78.3892L87.7999 78.4107L91.3768 74.917ZM101.612 84.246C94.7168 84.246 89.8067 82.3887 86.3132 79.164L79.5304 86.512C85.2929 91.8313 92.8428 94.246 101.612 94.246V84.246ZM86.3384 79.1874C82.9726 76.0374 80.9798 71.3405 80.9798 64.326H70.9798C70.9798 73.3315 73.6149 80.9759 79.5052 86.4886L86.3384 79.1874ZM80.9798 64.326V49.374H70.9798V64.326H80.9798ZM80.9798 49.374C80.9798 42.3561 82.9736 37.7077 86.3132 34.625L79.5304 27.277C73.614 32.7383 70.9798 40.3719 70.9798 49.374H80.9798ZM86.3384 34.6016C89.8338 31.3302 94.7348 29.454 101.612 29.454V19.454C92.8247 19.454 85.2658 21.9091 79.5052 27.3004L86.3384 34.6016ZM101.612 29.454C108.489 29.454 113.39 31.3302 116.885 34.6016L123.718 27.3004C117.958 21.9091 110.399 19.454 101.612 19.454V29.454ZM116.91 34.625C120.25 37.7077 122.244 42.3561 122.244 49.374H132.244C132.244 40.3719 129.61 32.7383 123.693 27.277L116.91 34.625ZM122.244 49.374V64.326H132.244V49.374H122.244ZM122.244 64.326C122.244 71.3405 120.251 76.0374 116.885 79.1874L123.718 86.4886C129.609 80.9759 132.244 73.3315 132.244 64.326H122.244ZM116.91 79.164C113.417 82.3887 108.507 84.246 101.612 84.246V94.246C110.381 94.246 117.931 91.8313 123.693 86.512L116.91 79.164ZM101.612 83.744C107.012 83.744 111.868 82.1404 115.465 78.3674L108.228 71.4666C106.96 72.7963 104.993 73.744 101.612 73.744V83.744ZM115.465 78.3674C118.966 74.6965 120.496 69.9506 120.496 64.682H110.496C110.496 67.9574 109.593 70.0348 108.228 71.4666L115.465 78.3674ZM120.496 64.682V49.018H110.496V64.682H120.496ZM120.496 49.018C120.496 43.7494 118.966 39.0035 115.465 35.3326L108.228 42.2334C109.593 43.6652 110.496 45.7426 110.496 49.018H120.496ZM115.465 35.3326C111.868 31.5596 107.012 29.956 101.612 29.956V39.956C104.993 39.956 106.96 40.9037 108.228 42.2334L115.465 35.3326ZM101.612 29.956C96.243 29.956 91.4288 31.5741 87.7999 35.2893L94.9537 42.2767C96.3088 40.8893 98.3179 39.956 101.612 39.956V29.956ZM87.7581 35.3326C84.258 39.0035 82.7278 43.7494 82.7278 49.018H92.7278C92.7278 45.7426 93.6303 43.6652 94.9955 42.2334L87.7581 35.3326ZM82.7278 49.018V64.682H92.7278V49.018H82.7278ZM82.7278 64.682C82.7278 69.9506 84.258 74.6965 87.7581 78.3674L94.9955 71.4666C93.6303 70.0348 92.7278 67.9574 92.7278 64.682H82.7278ZM87.7999 78.4107C91.4288 82.1259 96.243 83.744 101.612 83.744V73.744C98.3179 73.744 96.3088 72.8107 94.9537 71.4233L87.7999 78.4107ZM137.548 88H132.548V93H137.548V88ZM137.548 25.7V20.7H132.548V25.7H137.548ZM159.887 25.7L164.762 24.5891L163.876 20.7H159.887V25.7ZM172.258 79.99L167.383 81.1009L168.269 84.99H172.258V79.99ZM173.86 79.99V84.99H178.86V79.99H173.86ZM173.86 25.7V20.7H168.86V25.7H173.86ZM185.43 25.7H190.43V20.7H185.43V25.7ZM185.43 88V93H190.43V88H185.43ZM163.091 88L158.216 89.1109L159.102 93H163.091V88ZM150.72 33.71L155.595 32.5991L154.709 28.71H150.72V33.71ZM149.118 33.71V28.71H144.118V33.71H149.118ZM149.118 88V93H154.118V88H149.118ZM142.548 88V25.7H132.548V88H142.548ZM137.548 30.7H159.887V20.7H137.548V30.7ZM155.012 26.8109L167.383 81.1009L177.133 78.8791L164.762 24.5891L155.012 26.8109ZM172.258 84.99H173.86V74.99H172.258V84.99ZM178.86 79.99V25.7H168.86V79.99H178.86ZM173.86 30.7H185.43V20.7H173.86V30.7ZM180.43 25.7V88H190.43V25.7H180.43ZM185.43 83H163.091V93H185.43V83ZM167.966 86.8891L155.595 32.5991L145.845 34.8209L158.216 89.1109L167.966 86.8891ZM150.72 28.71H149.118V38.71H150.72V28.71ZM144.118 33.71V88H154.118V33.71H144.118ZM149.118 83H137.548V93H149.118V83ZM192.899 88L188.064 86.7289L186.415 93H192.899V88ZM209.275 25.7V20.7H205.42L204.44 24.4289L209.275 25.7ZM229.745 25.7L234.581 24.4289L233.601 20.7H229.745V25.7ZM246.121 88V93H252.606L250.957 86.7289L246.121 88ZM234.017 88L229.163 89.1978L230.101 93H234.017V88ZM230.635 74.294L235.49 73.0962L234.552 69.294H230.635V74.294ZM208.385 74.294V69.294H204.469L203.531 73.0962L208.385 74.294ZM205.003 88V93H208.92L209.858 89.1978L205.003 88ZM211.144 63.436L206.293 62.2267L204.745 68.436H211.144V63.436ZM227.876 63.436V68.436H234.276L232.728 62.2267L227.876 63.436ZM220.311 33.087L225.163 31.8777L224.218 28.087H220.311V33.087ZM218.709 33.087V28.087H214.803L213.858 31.8777L218.709 33.087ZM197.735 89.2711L214.111 26.9711L204.44 24.4289L188.064 86.7289L197.735 89.2711ZM209.275 30.7H229.745V20.7H209.275V30.7ZM224.91 26.9711L241.286 89.2711L250.957 86.7289L234.581 24.4289L224.91 26.9711ZM246.121 83H234.017V93H246.121V83ZM238.872 86.8022L235.49 73.0962L225.781 75.4918L229.163 89.1978L238.872 86.8022ZM230.635 69.294H208.385V79.294H230.635V69.294ZM203.531 73.0962L200.149 86.8022L209.858 89.1978L213.24 75.4918L203.531 73.0962ZM205.003 83H192.899V93H205.003V83ZM211.144 68.436H227.876V58.436H211.144V68.436ZM232.728 62.2267L225.163 31.8777L215.46 34.2963L223.025 64.6453L232.728 62.2267ZM220.311 28.087H218.709V38.087H220.311V28.087ZM213.858 31.8777L206.293 62.2267L215.996 64.6453L223.561 34.2963L213.858 31.8777ZM253.579 88H248.579V93H253.579V88ZM253.579 25.7V20.7H248.579V25.7H253.579ZM265.327 25.7H270.327V20.7H265.327V25.7ZM265.327 51.421H260.327V56.421H265.327V51.421ZM288.467 51.421V56.421H293.467V51.421H288.467ZM288.467 25.7V20.7H283.467V25.7H288.467ZM300.215 25.7H305.215V20.7H300.215V25.7ZM300.215 88V93H305.215V88H300.215ZM288.467 88H283.467V93H288.467V88ZM288.467 62.101H293.467V57.101H288.467V62.101ZM265.327 62.101V57.101H260.327V62.101H265.327ZM265.327 88V93H270.327V88H265.327ZM258.579 88V25.7H248.579V88H258.579ZM253.579 30.7H265.327V20.7H253.579V30.7ZM260.327 25.7V51.421H270.327V25.7H260.327ZM265.327 56.421H288.467V46.421H265.327V56.421ZM293.467 51.421V25.7H283.467V51.421H293.467ZM288.467 30.7H300.215V20.7H288.467V30.7ZM295.215 25.7V88H305.215V25.7H295.215ZM300.215 83H288.467V93H300.215V83ZM293.467 88V62.101H283.467V88H293.467ZM288.467 57.101H265.327V67.101H288.467V57.101ZM260.327 62.101V88H270.327V62.101H260.327ZM265.327 83H253.579V93H265.327V83ZM329.268 88L324.432 86.7289L322.783 93H329.268V88ZM345.644 25.7V20.7H341.788L340.808 24.4289L345.644 25.7ZM366.114 25.7L370.949 24.4289L369.969 20.7H366.114V25.7ZM382.49 88V93H388.974L387.325 86.7289L382.49 88ZM370.386 88L365.531 89.1978L366.469 93H370.386V88ZM367.004 74.294L371.858 73.0962L370.92 69.294H367.004V74.294ZM344.754 74.294V69.294H340.837L339.899 73.0962L344.754 74.294ZM341.372 88V93H345.288L346.226 89.1978L341.372 88ZM347.513 63.436L342.661 62.2267L341.113 68.436H347.513V63.436ZM364.245 63.436V68.436H370.644L369.096 62.2267L364.245 63.436ZM356.68 33.087L361.531 31.8777L360.586 28.087H356.68V33.087ZM355.078 33.087V28.087H351.171L350.226 31.8777L355.078 33.087ZM334.103 89.2711L350.479 26.9711L340.808 24.4289L324.432 86.7289L334.103 89.2711ZM345.644 30.7H366.114V20.7H345.644V30.7ZM361.278 26.9711L377.654 89.2711L387.325 86.7289L370.949 24.4289L361.278 26.9711ZM382.49 83H370.386V93H382.49V83ZM375.24 86.8022L371.858 73.0962L362.149 75.4918L365.531 89.1978L375.24 86.8022ZM367.004 69.294H344.754V79.294H367.004V69.294ZM339.899 73.0962L336.517 86.8022L346.226 89.1978L349.608 75.4918L339.899 73.0962ZM341.372 83H329.268V93H341.372V83ZM347.513 68.436H364.245V58.436H347.513V68.436ZM369.096 62.2267L361.531 31.8777L351.828 34.2963L359.393 64.6453L369.096 62.2267ZM356.68 28.087H355.078V38.087H356.68V28.087ZM350.226 31.8777L342.661 62.2267L352.364 64.6453L359.929 34.2963L350.226 31.8777ZM397.432 88L392.586 89.2322L393.544 93H397.432V88ZM381.59 25.7V20.7H375.159L376.744 26.9322L381.59 25.7ZM393.694 25.7L398.555 24.5301L397.633 20.7H393.694V25.7ZM406.866 80.435L402.005 81.6049L402.926 85.435H406.866V80.435ZM408.112 80.435V85.435H412.051L412.973 81.6049L408.112 80.435ZM421.284 25.7V20.7H417.344L416.423 24.5301L421.284 25.7ZM433.388 25.7L438.234 26.9322L439.818 20.7H433.388V25.7ZM417.546 88V93H421.433L422.392 89.2322L417.546 88ZM402.278 86.7678L386.436 24.4678L376.744 26.9322L392.586 89.2322L402.278 86.7678ZM381.59 30.7H393.694V20.7H381.59V30.7ZM388.833 26.8698L402.005 81.6049L411.727 79.2651L398.555 24.5301L388.833 26.8698ZM406.866 85.435H408.112V75.435H406.866V85.435ZM412.973 81.6049L426.145 26.8698L416.423 24.5301L403.251 79.2651L412.973 81.6049ZM421.284 30.7H433.388V20.7H421.284V30.7ZM428.542 24.4678L412.7 86.7678L422.392 89.2322L438.234 26.9322L428.542 24.4678ZM417.546 83H397.432V93H417.546V83ZM440.878 88H435.878V93H440.878V88ZM440.878 25.7V20.7H435.878V25.7H440.878ZM452.626 25.7H457.626V20.7H452.626V25.7ZM452.626 88V93H457.626V88H452.626ZM445.878 88V25.7H435.878V88H445.878ZM440.878 30.7H452.626V20.7H440.878V30.7ZM447.626 25.7V88H457.626V25.7H447.626ZM452.626 83H440.878V93H452.626V83ZM475.915 88L471.069 89.2322L472.027 93H475.915V88ZM460.073 25.7V20.7H453.643L455.227 26.9322L460.073 25.7ZM472.177 25.7L477.038 24.5301L476.117 20.7H472.177V25.7ZM485.349 80.435L480.488 81.6049L481.41 85.435H485.349V80.435ZM486.595 80.435V85.435H490.535L491.456 81.6049L486.595 80.435ZM499.767 25.7V20.7H495.828L494.906 24.5301L499.767 25.7ZM511.871 25.7L516.717 26.9322L518.302 20.7H511.871V25.7ZM496.029 88V93H499.917L500.875 89.2322L496.029 88ZM480.761 86.7678L464.919 24.4678L455.227 26.9322L471.069 89.2322L480.761 86.7678ZM460.073 30.7H472.177V20.7H460.073V30.7ZM467.316 26.8698L480.488 81.6049L490.21 79.2651L477.038 24.5301L467.316 26.8698ZM485.349 85.435H486.595V75.435H485.349V85.435ZM491.456 81.6049L504.628 26.8698L494.906 24.5301L481.734 79.2651L491.456 81.6049ZM499.767 30.7H511.871V20.7H499.767V30.7ZM507.025 24.4678L491.183 86.7678L500.875 89.2322L516.717 26.9322L507.025 24.4678ZM496.029 83H475.915V93H496.029V83Z" fill="url(#paint0_linear_3_85)" mask="url(#path-1-outside-1_3_85)"/>
<defs>
<linearGradient id="paint0_linear_3_85" x1="0" y1="57" x2="532" y2="57" gradientUnits="userSpaceOnUse">
<stop offset="0.4301" stop-color="#D53C2D"/>
<stop offset="1" stop-color="#340135"/>
</linearGradient>
</defs>
</svg>
