<svg width="425" height="283" viewBox="0 0 425 283" fill="none" xmlns="http://www.w3.org/2000/svg">
<path d="M63.5912 102V85.446C59.9718 84.378 56.8568 82.7167 54.2462 80.462C51.6948 78.2073 49.7072 75.4187 48.2832 72.096C46.9185 68.714 46.2362 64.9167 46.2362 60.704V39.7H64.7482V61.416C64.7482 63.2553 65.0745 64.9167 65.7272 66.4C66.4392 67.824 67.4182 68.9513 68.6642 69.782C69.9695 70.5533 71.4825 70.939 73.2032 70.939C74.9832 70.939 76.4962 70.5533 77.7422 69.782C79.0475 68.9513 80.0562 67.824 80.7682 66.4C81.4802 64.9167 81.8362 63.2553 81.8362 61.416V39.7H100.348V60.704C100.348 64.9167 99.6362 68.714 98.2122 72.096C96.7882 75.4187 94.7708 78.2073 92.1602 80.462C89.5495 82.7167 86.4345 84.378 82.8152 85.446V102H63.5912ZM137.469 103.157C132.544 103.157 128.005 102.356 123.852 100.754C119.758 99.152 116.198 96.8973 113.172 93.99C110.205 91.0233 107.891 87.582 106.23 83.666C104.568 79.75 103.738 75.478 103.738 70.85C103.738 66.222 104.568 61.95 106.23 58.034C107.891 54.0587 110.205 50.6173 113.172 47.71C116.198 44.8027 119.758 42.548 123.852 40.946C128.005 39.344 132.544 38.543 137.469 38.543C142.393 38.543 146.903 39.344 150.997 40.946C155.15 42.548 158.71 44.8027 161.677 47.71C164.703 50.6173 167.046 54.0587 168.708 58.034C170.369 61.95 171.2 66.222 171.2 70.85C171.2 75.478 170.369 79.75 168.708 83.666C167.046 87.582 164.703 91.0233 161.677 93.99C158.71 96.8973 155.15 99.152 150.997 100.754C146.903 102.356 142.393 103.157 137.469 103.157ZM137.469 87.671C139.664 87.671 141.652 87.2557 143.432 86.425C145.212 85.535 146.725 84.3187 147.971 82.776C149.217 81.2333 150.166 79.4533 150.819 77.436C151.471 75.3593 151.798 73.164 151.798 70.85C151.798 68.536 151.471 66.3703 150.819 64.353C150.166 62.2763 149.217 60.4667 147.971 58.924C146.725 57.3813 145.212 56.1947 143.432 55.364C141.652 54.474 139.664 54.029 137.469 54.029C135.273 54.029 133.286 54.474 131.506 55.364C129.726 56.1947 128.213 57.3813 126.967 58.924C125.721 60.4667 124.771 62.2763 124.119 64.353C123.466 66.3703 123.14 68.536 123.14 70.85C123.14 73.164 123.466 75.3593 124.119 77.436C124.771 79.4533 125.721 81.2333 126.967 82.776C128.213 84.3187 129.726 85.535 131.506 86.425C133.286 87.2557 135.273 87.671 137.469 87.671ZM224.829 103.157C221.031 103.157 217.442 102.386 214.06 100.843C210.737 99.241 208.037 96.927 205.961 93.901C203.884 90.875 202.846 87.1963 202.846 82.865V58.746C202.846 57.9747 202.668 57.322 202.312 56.788C202.015 56.1947 201.6 55.7497 201.066 55.453C200.532 55.1563 199.909 55.008 199.197 55.008C198.485 55.008 197.832 55.1563 197.239 55.453C196.705 55.7497 196.26 56.1947 195.904 56.788C195.607 57.322 195.459 57.9747 195.459 58.746V102H177.125V58.924C177.125 54.5927 178.133 50.914 180.151 47.888C182.227 44.862 184.957 42.548 188.339 40.946C191.721 39.344 195.34 38.543 199.197 38.543C203.053 38.543 206.643 39.344 209.966 40.946C213.288 42.548 215.988 44.862 218.065 47.888C220.141 50.914 221.18 54.5927 221.18 58.924V83.043C221.18 83.8143 221.358 84.4967 221.714 85.09C222.07 85.6833 222.515 86.1283 223.049 86.425C223.583 86.7217 224.146 86.87 224.74 86.87C225.392 86.87 226.015 86.7217 226.609 86.425C227.202 86.1283 227.677 85.6833 228.033 85.09C228.389 84.4967 228.567 83.8143 228.567 83.043V39.7H246.812V82.865C246.812 87.1963 245.773 90.875 243.697 93.901C241.62 96.927 238.891 99.241 235.509 100.843C232.186 102.386 228.626 103.157 224.829 103.157ZM250.655 102L270.591 47.532C271.719 44.5653 273.558 42.3403 276.109 40.857C278.72 39.3143 281.657 38.543 284.92 38.543C288.184 38.543 291.091 39.2847 293.642 40.768C296.253 42.2513 298.122 44.4763 299.249 47.443L319.185 102H298.804L295.422 91.142H274.151L270.591 102H250.655ZM278.156 76.457H291.417L285.632 56.432C285.573 56.254 285.484 56.1353 285.365 56.076C285.247 55.9573 285.098 55.898 284.92 55.898C284.802 55.898 284.683 55.9573 284.564 56.076C284.446 56.1353 284.357 56.254 284.297 56.432L278.156 76.457ZM321.756 102V39.7H340.98V63.018H359.581V39.7H378.805V102H359.581V78.059H340.98V102H321.756ZM94.1665 244L114.103 189.532C115.23 186.565 117.069 184.34 119.621 182.857C122.231 181.314 125.168 180.543 128.432 180.543C131.695 180.543 134.602 181.285 137.154 182.768C139.764 184.251 141.633 186.476 142.761 189.443L162.697 244H142.316L138.934 233.142H117.663L114.103 244H94.1665ZM121.668 218.457H134.929L129.144 198.432C129.084 198.254 128.995 198.135 128.877 198.076C128.758 197.957 128.61 197.898 128.432 197.898C128.313 197.898 128.194 197.957 128.076 198.076C127.957 198.135 127.868 198.254 127.809 198.432L121.668 218.457ZM185.089 245.157C181.826 245.157 178.889 244.415 176.278 242.932C173.727 241.389 171.917 239.135 170.849 236.168L151.269 181.7H171.205L184.466 226.111C184.585 226.289 184.674 226.467 184.733 226.645C184.852 226.823 184.97 226.912 185.089 226.912C185.267 226.912 185.415 226.823 185.534 226.645C185.653 226.467 185.742 226.289 185.801 226.111L198.795 181.7H218.909L199.418 236.168C198.291 239.194 196.422 241.449 193.811 242.932C191.26 244.415 188.352 245.157 185.089 245.157ZM221.736 244V228.959H231.437V196.741H221.736V181.7H260.451V196.741H250.661V228.959H260.451V244H221.736ZM297.034 245.157C293.771 245.157 290.834 244.415 288.223 242.932C285.672 241.389 283.862 239.135 282.794 236.168L263.214 181.7H283.15L296.411 226.111C296.53 226.289 296.619 226.467 296.678 226.645C296.797 226.823 296.916 226.912 297.034 226.912C297.212 226.912 297.361 226.823 297.479 226.645C297.598 226.467 297.687 226.289 297.746 226.111L310.74 181.7H330.854L311.363 236.168C310.236 239.194 308.367 241.449 305.756 242.932C303.205 244.415 300.298 245.157 297.034 245.157Z" fill="white"/>
<mask id="mask0_3_86" style="mask-type:luminance" maskUnits="userSpaceOnUse" x="41" y="33" width="343" height="218">
<path d="M384 33H41V251H384V33Z" fill="white"/>
<path d="M63.5912 102V85.446C59.9718 84.378 56.8568 82.7167 54.2462 80.462C51.6948 78.2073 49.7072 75.4187 48.2832 72.096C46.9185 68.714 46.2362 64.9167 46.2362 60.704V39.7H64.7482V61.416C64.7482 63.2553 65.0745 64.9167 65.7272 66.4C66.4392 67.824 67.4182 68.9513 68.6642 69.782C69.9695 70.5533 71.4825 70.939 73.2032 70.939C74.9832 70.939 76.4962 70.5533 77.7422 69.782C79.0475 68.9513 80.0562 67.824 80.7682 66.4C81.4802 64.9167 81.8362 63.2553 81.8362 61.416V39.7H100.348V60.704C100.348 64.9167 99.6362 68.714 98.2122 72.096C96.7882 75.4187 94.7708 78.2073 92.1602 80.462C89.5495 82.7167 86.4345 84.378 82.8152 85.446V102H63.5912ZM137.469 103.157C132.544 103.157 128.005 102.356 123.852 100.754C119.758 99.152 116.198 96.8973 113.172 93.99C110.205 91.0233 107.891 87.582 106.23 83.666C104.568 79.75 103.738 75.478 103.738 70.85C103.738 66.222 104.568 61.95 106.23 58.034C107.891 54.0587 110.205 50.6173 113.172 47.71C116.198 44.8027 119.758 42.548 123.852 40.946C128.005 39.344 132.544 38.543 137.469 38.543C142.393 38.543 146.903 39.344 150.997 40.946C155.15 42.548 158.71 44.8027 161.677 47.71C164.703 50.6173 167.046 54.0587 168.708 58.034C170.369 61.95 171.2 66.222 171.2 70.85C171.2 75.478 170.369 79.75 168.708 83.666C167.046 87.582 164.703 91.0233 161.677 93.99C158.71 96.8973 155.15 99.152 150.997 100.754C146.903 102.356 142.393 103.157 137.469 103.157ZM137.469 87.671C139.664 87.671 141.652 87.2557 143.432 86.425C145.212 85.535 146.725 84.3187 147.971 82.776C149.217 81.2333 150.166 79.4533 150.819 77.436C151.471 75.3593 151.798 73.164 151.798 70.85C151.798 68.536 151.471 66.3703 150.819 64.353C150.166 62.2763 149.217 60.4667 147.971 58.924C146.725 57.3813 145.212 56.1947 143.432 55.364C141.652 54.474 139.664 54.029 137.469 54.029C135.273 54.029 133.286 54.474 131.506 55.364C129.726 56.1947 128.213 57.3813 126.967 58.924C125.721 60.4667 124.771 62.2763 124.119 64.353C123.466 66.3703 123.14 68.536 123.14 70.85C123.14 73.164 123.466 75.3593 124.119 77.436C124.771 79.4533 125.721 81.2333 126.967 82.776C128.213 84.3187 129.726 85.535 131.506 86.425C133.286 87.2557 135.273 87.671 137.469 87.671ZM224.829 103.157C221.031 103.157 217.442 102.386 214.06 100.843C210.737 99.241 208.037 96.927 205.961 93.901C203.884 90.875 202.846 87.1963 202.846 82.865V58.746C202.846 57.9747 202.668 57.322 202.312 56.788C202.015 56.1947 201.6 55.7497 201.066 55.453C200.532 55.1563 199.909 55.008 199.197 55.008C198.485 55.008 197.832 55.1563 197.239 55.453C196.705 55.7497 196.26 56.1947 195.904 56.788C195.607 57.322 195.459 57.9747 195.459 58.746V102H177.125V58.924C177.125 54.5927 178.133 50.914 180.151 47.888C182.227 44.862 184.957 42.548 188.339 40.946C191.721 39.344 195.34 38.543 199.197 38.543C203.053 38.543 206.643 39.344 209.966 40.946C213.288 42.548 215.988 44.862 218.065 47.888C220.141 50.914 221.18 54.5927 221.18 58.924V83.043C221.18 83.8143 221.358 84.4967 221.714 85.09C222.07 85.6833 222.515 86.1283 223.049 86.425C223.583 86.7217 224.146 86.87 224.74 86.87C225.392 86.87 226.015 86.7217 226.609 86.425C227.202 86.1283 227.677 85.6833 228.033 85.09C228.389 84.4967 228.567 83.8143 228.567 83.043V39.7H246.812V82.865C246.812 87.1963 245.773 90.875 243.697 93.901C241.62 96.927 238.891 99.241 235.509 100.843C232.186 102.386 228.626 103.157 224.829 103.157ZM250.655 102L270.591 47.532C271.719 44.5653 273.558 42.3403 276.109 40.857C278.72 39.3143 281.657 38.543 284.92 38.543C288.184 38.543 291.091 39.2847 293.642 40.768C296.253 42.2513 298.122 44.4763 299.249 47.443L319.185 102H298.804L295.422 91.142H274.151L270.591 102H250.655ZM278.156 76.457H291.417L285.632 56.432C285.573 56.254 285.484 56.1353 285.365 56.076C285.247 55.9573 285.098 55.898 284.92 55.898C284.802 55.898 284.683 55.9573 284.564 56.076C284.446 56.1353 284.357 56.254 284.297 56.432L278.156 76.457ZM321.756 102V39.7H340.98V63.018H359.581V39.7H378.805V102H359.581V78.059H340.98V102H321.756ZM94.1665 244L114.103 189.532C115.23 186.565 117.069 184.34 119.621 182.857C122.231 181.314 125.168 180.543 128.432 180.543C131.695 180.543 134.602 181.285 137.154 182.768C139.764 184.251 141.633 186.476 142.761 189.443L162.697 244H142.316L138.934 233.142H117.663L114.103 244H94.1665ZM121.668 218.457H134.929L129.144 198.432C129.084 198.254 128.995 198.135 128.877 198.076C128.758 197.957 128.61 197.898 128.432 197.898C128.313 197.898 128.194 197.957 128.076 198.076C127.957 198.135 127.868 198.254 127.809 198.432L121.668 218.457ZM185.089 245.157C181.826 245.157 178.889 244.415 176.278 242.932C173.727 241.389 171.917 239.135 170.849 236.168L151.269 181.7H171.205L184.466 226.111C184.585 226.289 184.674 226.467 184.733 226.645C184.852 226.823 184.97 226.912 185.089 226.912C185.267 226.912 185.415 226.823 185.534 226.645C185.653 226.467 185.742 226.289 185.801 226.111L198.795 181.7H218.909L199.418 236.168C198.291 239.194 196.422 241.449 193.811 242.932C191.26 244.415 188.352 245.157 185.089 245.157ZM221.736 244V228.959H231.437V196.741H221.736V181.7H260.451V196.741H250.661V228.959H260.451V244H221.736ZM297.034 245.157C293.771 245.157 290.834 244.415 288.223 242.932C285.672 241.389 283.862 239.135 282.794 236.168L263.214 181.7H283.15L296.411 226.111C296.53 226.289 296.619 226.467 296.678 226.645C296.797 226.823 296.916 226.912 297.034 226.912C297.212 226.912 297.361 226.823 297.479 226.645C297.598 226.467 297.687 226.289 297.746 226.111L310.74 181.7H330.854L311.363 236.168C310.236 239.194 308.367 241.449 305.756 242.932C303.205 244.415 300.298 245.157 297.034 245.157Z" fill="black"/>
</mask>
<g mask="url(#mask0_3_86)">
<path d="M63.5912 102H58.5912V107H63.5912V102ZM63.5912 85.446H68.5912V81.7083L65.0063 80.6504L63.5912 85.446ZM54.2462 80.462L50.9352 84.2086L50.9565 84.2275L50.9781 84.2461L54.2462 80.462ZM48.2832 72.096L43.6464 73.967L43.6664 74.0165L43.6875 74.0656L48.2832 72.096ZM46.2362 39.7V34.7H41.2362V39.7H46.2362ZM64.7482 39.7H69.7482V34.7H64.7482V39.7ZM65.7272 66.4L61.1506 68.4137L61.2001 68.5262L61.255 68.6361L65.7272 66.4ZM68.6642 69.782L65.8907 73.9422L66.0036 74.0176L66.1205 74.0866L68.6642 69.782ZM77.7422 69.782L80.374 74.0333L80.4004 74.017L80.4266 74.0003L77.7422 69.782ZM80.7682 66.4L85.2403 68.6361L85.2583 68.6L85.2758 68.5637L80.7682 66.4ZM81.8362 39.7V34.7H76.8362V39.7H81.8362ZM100.348 39.7H105.348V34.7H100.348V39.7ZM98.2122 72.096L102.808 74.0656L102.814 74.051L102.82 74.0363L98.2122 72.096ZM82.8152 85.446L81.4001 80.6504L77.8152 81.7083V85.446H82.8152ZM82.8152 102V107H87.8152V102H82.8152ZM68.5912 102V85.446H58.5912V102H68.5912ZM65.0063 80.6504C62.0047 79.7647 59.5374 78.4251 57.5143 76.6779L50.9781 84.2461C54.1763 87.0082 57.939 88.9913 62.1761 90.2416L65.0063 80.6504ZM57.5572 76.7154C55.5942 74.9807 54.0298 72.8118 52.8789 70.1264L43.6875 74.0656C45.3846 78.0255 47.7955 81.434 50.9352 84.2086L57.5572 76.7154ZM52.9199 70.225C51.8294 67.5225 51.2362 64.3738 51.2362 60.704H41.2362C41.2362 65.4595 42.0076 69.9055 43.6464 73.967L52.9199 70.225ZM51.2362 60.704V39.7H41.2362V60.704H51.2362ZM46.2362 44.7H64.7482V34.7H46.2362V44.7ZM59.7482 39.7V61.416H69.7482V39.7H59.7482ZM59.7482 61.416C59.7482 63.8552 60.1834 66.2155 61.1506 68.4137L70.3038 64.3863C69.9656 63.6179 69.7482 62.6554 69.7482 61.416H59.7482ZM61.255 68.6361C62.3307 70.7874 63.8747 72.5983 65.8907 73.9422L71.4377 65.6217C70.9616 65.3044 70.5476 64.8606 70.1993 64.1639L61.255 68.6361ZM66.1205 74.0866C68.2957 75.372 70.7108 75.939 73.2032 75.939V65.939C72.2542 65.939 71.6433 65.7347 71.2078 65.4774L66.1205 74.0866ZM73.2032 75.939C75.7127 75.939 78.1828 75.3898 80.374 74.0333L75.1104 65.5307C74.8096 65.7169 74.2537 65.939 73.2032 65.939V75.939ZM80.4266 74.0003C82.5194 72.6685 84.1354 70.846 85.2403 68.6361L76.296 64.1639C75.977 64.802 75.5757 65.2341 75.0578 65.5637L80.4266 74.0003ZM85.2758 68.5637C86.3483 66.3292 86.8362 63.9153 86.8362 61.416H76.8362C76.8362 62.5953 76.612 63.5041 76.2606 64.2363L85.2758 68.5637ZM86.8362 61.416V39.7H76.8362V61.416H86.8362ZM81.8362 44.7H100.348V34.7H81.8362V44.7ZM95.3482 39.7V60.704H105.348V39.7H95.3482ZM95.3482 60.704C95.3482 64.3481 94.7339 67.4721 93.604 70.1557L102.82 74.0363C104.538 69.9559 105.348 65.4852 105.348 60.704H95.3482ZM93.6165 70.1264C92.4768 72.7857 90.9005 74.9433 88.8921 76.6779L95.4283 84.2461C98.6412 81.4714 101.1 78.0517 102.808 74.0656L93.6165 70.1264ZM88.8921 76.6779C86.869 78.4251 84.4016 79.7647 81.4001 80.6504L84.2303 90.2416C88.4674 88.9913 92.2301 87.0082 95.4283 84.2461L88.8921 76.6779ZM77.8152 85.446V102H87.8152V85.446H77.8152ZM82.8152 97H63.5912V107H82.8152V97ZM123.852 100.754L122.03 105.41L122.041 105.415L122.052 105.419L123.852 100.754ZM113.172 93.99L109.636 97.5255L109.672 97.5609L109.708 97.5955L113.172 93.99ZM106.23 58.034L110.833 59.9867L110.838 59.9744L110.843 59.962L106.23 58.034ZM113.172 47.71L109.708 44.1045L109.69 44.1216L109.672 44.1389L113.172 47.71ZM123.852 40.946L122.052 36.281L122.041 36.2854L122.03 36.2898L123.852 40.946ZM150.997 40.946L149.175 45.6022L149.186 45.6066L149.197 45.611L150.997 40.946ZM161.677 47.71L158.177 51.2811L158.195 51.2984L158.213 51.3155L161.677 47.71ZM168.708 58.034L164.094 59.962L164.1 59.9744L164.105 59.9867L168.708 58.034ZM161.677 93.99L165.176 97.5611L165.177 97.5604L161.677 93.99ZM150.997 100.754L149.197 96.089L149.186 96.0934L149.175 96.0978L150.997 100.754ZM143.432 86.425L145.546 90.9559L145.607 90.9273L145.668 90.8971L143.432 86.425ZM150.819 77.436L155.576 78.9751L155.583 78.9551L155.589 78.9351L150.819 77.436ZM150.819 64.353L146.049 65.8521L146.055 65.8721L146.062 65.8921L150.819 64.353ZM143.432 55.364L141.196 59.8361L141.256 59.8663L141.317 59.8949L143.432 55.364ZM131.506 55.364L133.62 59.8949L133.681 59.8663L133.742 59.8361L131.506 55.364ZM124.119 64.353L128.876 65.8921L128.883 65.8721L128.889 65.8521L124.119 64.353ZM124.119 77.436L119.349 78.9351L119.355 78.9551L119.362 78.9751L124.119 77.436ZM131.506 86.425L129.27 90.8971L129.33 90.9273L129.391 90.9559L131.506 86.425ZM137.469 98.157C133.094 98.157 129.173 97.4472 125.651 96.089L122.052 105.419C126.838 107.265 131.994 108.157 137.469 108.157V98.157ZM125.674 96.0978C122.161 94.7233 119.166 92.8157 116.636 90.3845L109.708 97.5955C113.229 100.979 117.354 103.581 122.03 105.41L125.674 96.0978ZM116.707 90.4545C114.201 87.9484 112.247 85.0464 110.833 81.7132L101.627 85.6187C103.536 90.1176 106.209 94.0983 109.636 97.5255L116.707 90.4545ZM110.833 81.7132C109.456 78.4674 108.738 74.8665 108.738 70.85H98.7378C98.7378 76.0895 99.6813 81.0325 101.627 85.6187L110.833 81.7132ZM108.738 70.85C108.738 66.8335 109.456 63.2325 110.833 59.9867L101.627 56.0812C99.6813 60.6674 98.7378 65.6105 98.7378 70.85H108.738ZM110.843 59.962C112.257 56.5798 114.2 53.7032 116.671 51.2811L109.672 44.1389C106.21 47.5315 103.526 51.5375 101.616 56.106L110.843 59.962ZM116.636 51.3155C119.166 48.8843 122.161 46.9767 125.674 45.6022L122.03 36.2898C117.354 38.1193 113.229 40.721 109.708 44.1045L116.636 51.3155ZM125.651 45.611C129.173 44.2528 133.094 43.543 137.469 43.543V33.543C131.994 33.543 126.838 34.4352 122.052 36.281L125.651 45.611ZM137.469 43.543C141.845 43.543 145.727 44.2531 149.175 45.6022L152.819 36.2898C148.079 34.4349 142.942 33.543 137.469 33.543V43.543ZM149.197 45.611C152.762 46.9857 155.731 48.8838 158.177 51.2811L165.176 44.1389C161.689 40.7215 157.539 38.1102 152.796 36.281L149.197 45.611ZM158.213 51.3155C160.731 53.7355 162.69 56.6013 164.094 59.962L173.321 56.106C171.403 51.516 168.674 47.4992 165.141 44.1045L158.213 51.3155ZM164.105 59.9867C165.482 63.2325 166.2 66.8335 166.2 70.85H176.2C176.2 65.6105 175.256 60.6674 173.311 56.0812L164.105 59.9867ZM166.2 70.85C166.2 74.8665 165.482 78.4674 164.105 81.7132L173.311 85.6187C175.256 81.0325 176.2 76.0895 176.2 70.85H166.2ZM164.105 81.7132C162.7 85.025 160.73 87.9161 158.176 90.4196L165.177 97.5604C168.676 94.1306 171.393 90.139 173.311 85.6187L164.105 81.7132ZM158.177 90.4189C155.731 92.8162 152.762 94.7142 149.197 96.089L152.796 105.419C157.539 103.59 161.689 100.978 165.176 97.5611L158.177 90.4189ZM149.175 96.0978C145.727 97.4469 141.845 98.157 137.469 98.157V108.157C142.942 108.157 148.079 107.265 152.819 105.41L149.175 96.0978ZM137.469 92.671C140.308 92.671 143.03 92.1301 145.546 90.9559L141.317 81.8941C140.274 82.3812 139.02 82.671 137.469 82.671V92.671ZM145.668 90.8971C148.086 89.6883 150.163 88.0191 151.861 85.9177L144.081 79.6343C143.286 80.6182 142.338 81.3817 141.196 81.9529L145.668 90.8971ZM151.861 85.9177C153.517 83.8663 154.748 81.5346 155.576 78.9751L146.062 75.8969C145.584 77.3721 144.916 78.6003 144.081 79.6343L151.861 85.9177ZM155.589 78.9351C156.403 76.3437 156.798 73.6404 156.798 70.85H146.798C146.798 72.6876 146.54 74.375 146.049 75.9369L155.589 78.9351ZM156.798 70.85C156.798 68.061 156.404 65.3717 155.576 62.8139L146.062 65.8921C146.539 67.369 146.798 69.011 146.798 70.85H156.798ZM155.589 62.8539C154.767 60.2379 153.537 57.8581 151.861 55.7823L144.081 62.0657C144.897 63.0753 145.566 64.3148 146.049 65.8521L155.589 62.8539ZM151.861 55.7823C150.141 53.6533 148.023 51.9888 145.546 50.8331L141.317 59.8949C142.401 60.4005 143.309 61.1093 144.081 62.0657L151.861 55.7823ZM145.668 50.8919C143.124 49.6201 140.359 49.029 137.469 49.029V59.029C138.969 59.029 140.179 59.3279 141.196 59.8361L145.668 50.8919ZM137.469 49.029C134.579 49.029 131.813 49.6201 129.27 50.8919L133.742 59.8361C134.758 59.3279 135.968 59.029 137.469 59.029V49.029ZM129.391 50.8331C126.915 51.9888 124.797 53.6533 123.077 55.7823L130.857 62.0657C131.629 61.1093 132.537 60.4005 133.62 59.8949L129.391 50.8331ZM123.077 55.7823C121.401 57.8581 120.171 60.2379 119.349 62.8539L128.889 65.8521C129.372 64.3148 130.041 63.0753 130.857 62.0657L123.077 55.7823ZM119.362 62.8139C118.534 65.3717 118.14 68.061 118.14 70.85H128.14C128.14 69.011 128.398 67.369 128.876 65.8921L119.362 62.8139ZM118.14 70.85C118.14 73.6404 118.534 76.3437 119.349 78.9351L128.889 75.9369C128.398 74.375 128.14 72.6876 128.14 70.85H118.14ZM119.362 78.9751C120.19 81.5346 121.42 83.8663 123.077 85.9177L130.857 79.6343C130.021 78.6003 129.353 77.3721 128.876 75.8969L119.362 78.9751ZM123.077 85.9177C124.774 88.0191 126.852 89.6883 129.27 90.8971L133.742 81.9529C132.6 81.3817 131.651 80.6182 130.857 79.6343L123.077 85.9177ZM129.391 90.9559C131.908 92.1301 134.629 92.671 137.469 92.671V82.671C135.918 82.671 134.664 82.3812 133.62 81.8941L129.391 90.9559ZM214.06 100.843L211.888 105.347L211.936 105.37L211.985 105.392L214.06 100.843ZM202.312 56.788L197.839 59.0241L197.979 59.3025L198.151 59.5615L202.312 56.788ZM197.239 55.453L195.003 50.9809L194.905 51.0295L194.81 51.0822L197.239 55.453ZM195.904 56.788L191.616 54.2155L191.573 54.287L191.533 54.3598L195.904 56.788ZM195.459 102V107H200.459V102H195.459ZM177.125 102H172.125V107H177.125V102ZM180.151 47.888L176.028 45.0588L176.009 45.0865L175.99 45.1145L180.151 47.888ZM228.567 39.7V34.7H223.567V39.7H228.567ZM246.812 39.7H251.812V34.7H246.812V39.7ZM235.509 100.843L237.614 105.378L237.632 105.37L237.649 105.362L235.509 100.843ZM224.829 98.157C221.731 98.157 218.851 97.5329 216.135 96.2939L211.985 105.392C216.032 107.238 220.331 108.157 224.829 108.157V98.157ZM216.231 96.3392C213.689 95.1137 211.664 93.3752 210.083 91.0718L201.838 96.7302C204.411 100.479 207.784 103.368 211.888 105.347L216.231 96.3392ZM210.083 91.0718C208.675 89.02 207.846 86.3725 207.846 82.865H197.846C197.846 88.0201 199.093 92.73 201.838 96.7302L210.083 91.0718ZM207.846 82.865V58.746H197.846V82.865H207.846ZM207.846 58.746C207.846 57.1897 207.478 55.5233 206.472 54.0145L198.151 59.5615C198.015 59.3577 197.933 59.1575 197.888 58.9936C197.845 58.8361 197.846 58.7438 197.846 58.746H207.846ZM206.784 54.5519C206.077 53.1385 204.985 51.9105 203.494 51.0822L198.637 59.8238C198.449 59.7194 198.272 59.5816 198.122 59.4208C197.975 59.2628 197.886 59.1181 197.839 59.0241L206.784 54.5519ZM203.494 51.0822C202.102 50.3092 200.617 50.008 199.197 50.008V60.008C199.205 60.008 199.147 60.0089 199.04 59.9833C198.929 59.9569 198.788 59.9075 198.637 59.8238L203.494 51.0822ZM199.197 50.008C197.767 50.008 196.34 50.3119 195.003 50.9809L199.475 59.9251C199.41 59.9576 199.342 59.9811 199.281 59.9949C199.222 60.0085 199.19 60.008 199.197 60.008V50.008ZM194.81 51.0822C193.412 51.859 192.362 52.9717 191.616 54.2155L200.191 59.3605C200.179 59.38 200.133 59.4512 200.04 59.5448C199.944 59.6408 199.818 59.7397 199.667 59.8238L194.81 51.0822ZM191.533 54.3598C190.729 55.8071 190.459 57.344 190.459 58.746H200.459C200.459 58.6053 200.485 58.8369 200.274 59.2162L191.533 54.3598ZM190.459 58.746V102H200.459V58.746H190.459ZM195.459 97H177.125V107H195.459V97ZM182.125 102V58.924H172.125V102H182.125ZM182.125 58.924C182.125 55.388 182.939 52.7199 184.311 50.6615L175.99 45.1145C173.328 49.1081 172.125 53.7973 172.125 58.924H182.125ZM184.273 50.7172C185.84 48.4345 187.879 46.6963 190.479 45.4647L186.198 36.4273C182.034 38.3997 178.615 41.2895 176.028 45.0588L184.273 50.7172ZM190.479 45.4647C193.171 44.1894 196.057 43.543 199.197 43.543V33.543C194.623 33.543 190.27 34.4986 186.198 36.4273L190.479 45.4647ZM199.197 43.543C202.336 43.543 205.18 44.1893 207.794 45.4498L212.137 36.4422C208.106 34.4987 203.77 33.543 199.197 33.543V43.543ZM207.794 45.4498C210.336 46.6753 212.361 48.4138 213.942 50.7172L222.187 45.0588C219.615 41.3102 216.241 38.4207 212.137 36.4422L207.794 45.4498ZM213.942 50.7172C215.35 52.769 216.18 55.4165 216.18 58.924H226.18C226.18 53.7689 224.932 49.059 222.187 45.0588L213.942 50.7172ZM216.18 58.924V83.043H226.18V58.924H216.18ZM216.18 83.043C216.18 84.6138 216.552 86.2054 217.426 87.6625L226.001 82.5175C226.073 82.637 226.122 82.7604 226.151 82.8711C226.165 82.9237 226.172 82.9666 226.176 82.9971C226.18 83.0274 226.18 83.0434 226.18 83.043H216.18ZM217.426 87.6625C218.172 88.9063 219.222 90.019 220.62 90.7958L225.477 82.0542C225.628 82.1383 225.754 82.2372 225.85 82.3332C225.944 82.4268 225.989 82.498 226.001 82.5175L217.426 87.6625ZM220.62 90.7958C221.874 91.4924 223.271 91.87 224.74 91.87V81.87C224.865 81.87 225.003 81.8863 225.144 81.9234C225.285 81.9603 225.397 82.0098 225.477 82.0542L220.62 90.7958ZM224.74 91.87C226.182 91.87 227.569 91.535 228.845 90.8971L224.373 81.9529C224.407 81.9358 224.463 81.9125 224.538 81.8947C224.613 81.8768 224.683 81.87 224.74 81.87V91.87ZM228.845 90.8971C230.326 90.1563 231.497 89.0343 232.32 87.6625L223.745 82.5175C223.79 82.4425 223.869 82.3345 223.99 82.2211C224.112 82.1065 224.245 82.0164 224.373 81.9529L228.845 90.8971ZM232.32 87.6625C233.194 86.2053 233.567 84.6138 233.567 83.043H223.567C223.567 83.0434 223.567 83.0274 223.57 82.9971C223.574 82.9666 223.581 82.9237 223.595 82.8711C223.624 82.7604 223.673 82.637 223.745 82.5175L232.32 87.6625ZM233.567 83.043V39.7H223.567V83.043H233.567ZM228.567 44.7H246.812V34.7H228.567V44.7ZM241.812 39.7V82.865H251.812V39.7H241.812ZM241.812 82.865C241.812 86.3725 240.982 89.02 239.574 91.0718L247.819 96.7302C250.564 92.73 251.812 88.0201 251.812 82.865H241.812ZM239.574 91.0718C238.007 93.3545 235.968 95.0927 233.368 96.3243L237.649 105.362C241.813 103.389 245.232 100.499 247.819 96.7302L239.574 91.0718ZM233.403 96.308C230.764 97.533 227.926 98.157 224.829 98.157V108.157C229.326 108.157 233.607 107.238 237.614 105.378L233.403 96.308ZM250.655 102L245.96 100.281L243.501 107H250.655V102ZM270.591 47.532L265.917 45.7559L265.906 45.7846L265.896 45.8134L270.591 47.532ZM276.109 40.857L278.622 45.1795L278.638 45.1706L278.653 45.1616L276.109 40.857ZM293.642 40.768L291.129 45.0905L291.151 45.103L291.172 45.1153L293.642 40.768ZM299.249 47.443L303.946 45.7269L303.935 45.6968L303.923 45.6669L299.249 47.443ZM319.185 102V107H326.336L323.882 100.284L319.185 102ZM298.804 102L294.03 103.487L295.125 107H298.804V102ZM295.422 91.142L300.196 89.6551L299.102 86.142H295.422V91.142ZM274.151 91.142V86.142H270.529L269.4 89.5842L274.151 91.142ZM270.591 102V107H274.214L275.342 103.558L270.591 102ZM278.156 76.457L273.376 74.9911L271.393 81.457H278.156V76.457ZM291.417 76.457V81.457H298.066L296.221 75.0693L291.417 76.457ZM285.632 56.432L290.436 55.0443L290.408 54.947L290.376 54.8509L285.632 56.432ZM285.365 56.076L281.83 59.6116L282.404 60.1853L283.129 60.5481L285.365 56.076ZM284.564 56.076L286.8 60.5481L287.526 60.1853L288.1 59.6116L284.564 56.076ZM284.297 56.432L279.554 54.8509L279.535 54.9082L279.517 54.966L284.297 56.432ZM255.351 103.719L275.287 49.2506L265.896 45.8134L245.96 100.281L255.351 103.719ZM275.265 49.3081C276.018 47.3262 277.139 46.0419 278.622 45.1795L273.596 36.5345C269.977 38.6388 267.419 41.8045 265.917 45.7559L275.265 49.3081ZM278.653 45.1616C280.435 44.1088 282.481 43.543 284.92 43.543V33.543C280.833 33.543 277.005 34.5199 273.566 36.5524L278.653 45.1616ZM284.92 43.543C287.397 43.543 289.42 44.0967 291.129 45.0905L296.155 36.4455C292.762 34.4726 288.971 33.543 284.92 33.543V43.543ZM291.172 45.1153C292.711 45.9896 293.836 47.2728 294.575 49.2191L303.923 45.6669C302.408 41.6798 299.795 38.5131 296.112 36.4207L291.172 45.1153ZM294.553 49.1591L314.489 103.716L323.882 100.284L303.946 45.7269L294.553 49.1591ZM319.185 97H298.804V107H319.185V97ZM303.578 100.513L300.196 89.6551L290.648 92.6289L294.03 103.487L303.578 100.513ZM295.422 86.142H274.151V96.142H295.422V86.142ZM269.4 89.5842L265.84 100.442L275.342 103.558L278.902 92.6998L269.4 89.5842ZM270.591 97H250.655V107H270.591V97ZM278.156 81.457H291.417V71.457H278.156V81.457ZM296.221 75.0693L290.436 55.0443L280.829 57.8197L286.614 77.8447L296.221 75.0693ZM290.376 54.8509C290.073 53.9417 289.324 52.4654 287.601 51.6038L283.129 60.5481C281.643 59.8053 281.073 58.5663 280.889 58.0131L290.376 54.8509ZM288.901 52.5404C287.783 51.4228 286.335 50.898 284.92 50.898V60.898C284.446 60.898 283.888 60.817 283.308 60.5849C282.722 60.3505 282.225 60.0064 281.83 59.6116L288.901 52.5404ZM284.92 50.898C283.008 50.898 281.692 51.8768 281.029 52.5404L288.1 59.6116C287.673 60.0379 286.595 60.898 284.92 60.898V50.898ZM282.328 51.6038C280.605 52.4654 279.857 53.9417 279.554 54.8509L289.041 58.0131C288.856 58.5663 288.286 59.8053 286.8 60.5481L282.328 51.6038ZM279.517 54.966L273.376 74.9911L282.937 77.9229L289.078 57.8979L279.517 54.966ZM321.756 102H316.756V107H321.756V102ZM321.756 39.7V34.7H316.756V39.7H321.756ZM340.98 39.7H345.98V34.7H340.98V39.7ZM340.98 63.018H335.98V68.018H340.98V63.018ZM359.581 63.018V68.018H364.581V63.018H359.581ZM359.581 39.7V34.7H354.581V39.7H359.581ZM378.805 39.7H383.805V34.7H378.805V39.7ZM378.805 102V107H383.805V102H378.805ZM359.581 102H354.581V107H359.581V102ZM359.581 78.059H364.581V73.059H359.581V78.059ZM340.98 78.059V73.059H335.98V78.059H340.98ZM340.98 102V107H345.98V102H340.98ZM326.756 102V39.7H316.756V102H326.756ZM321.756 44.7H340.98V34.7H321.756V44.7ZM335.98 39.7V63.018H345.98V39.7H335.98ZM340.98 68.018H359.581V58.018H340.98V68.018ZM364.581 63.018V39.7H354.581V63.018H364.581ZM359.581 44.7H378.805V34.7H359.581V44.7ZM373.805 39.7V102H383.805V39.7H373.805ZM378.805 97H359.581V107H378.805V97ZM364.581 102V78.059H354.581V102H364.581ZM359.581 73.059H340.98V83.059H359.581V73.059ZM335.98 78.059V102H345.98V78.059H335.98ZM340.98 97H321.756V107H340.98V97ZM94.1665 244L89.4711 242.281L87.012 249H94.1665V244ZM114.103 189.532L109.429 187.756L109.418 187.785L109.407 187.813L114.103 189.532ZM119.621 182.857L122.134 187.18L122.149 187.171L122.164 187.162L119.621 182.857ZM137.154 182.768L134.64 187.091L134.662 187.103L134.683 187.115L137.154 182.768ZM142.761 189.443L147.457 187.727L147.446 187.697L147.434 187.667L142.761 189.443ZM162.697 244V249H169.847L167.393 242.284L162.697 244ZM142.316 244L137.542 245.487L138.636 249H142.316V244ZM138.934 233.142L143.707 231.655L142.613 228.142H138.934V233.142ZM117.663 233.142V228.142H114.04L112.911 231.584L117.663 233.142ZM114.103 244V249H117.725L118.854 245.558L114.103 244ZM121.668 218.457L116.887 216.991L114.904 223.457H121.668V218.457ZM134.929 218.457V223.457H141.577L139.732 217.069L134.929 218.457ZM129.144 198.432L133.947 197.044L133.919 196.947L133.887 196.851L129.144 198.432ZM128.877 198.076L125.341 201.612L125.915 202.185L126.64 202.548L128.877 198.076ZM128.076 198.076L130.312 202.548L131.037 202.185L131.611 201.612L128.076 198.076ZM127.809 198.432L123.065 196.851L123.046 196.908L123.028 196.966L127.809 198.432ZM98.8619 245.719L118.798 191.251L109.407 187.813L89.4711 242.281L98.8619 245.719ZM118.776 191.308C119.53 189.326 120.65 188.042 122.134 187.18L117.107 178.534C113.488 180.639 110.93 183.804 109.429 187.756L118.776 191.308ZM122.164 187.162C123.946 186.109 125.992 185.543 128.432 185.543V175.543C124.344 175.543 120.516 176.52 117.077 178.552L122.164 187.162ZM128.432 185.543C130.908 185.543 132.931 186.097 134.64 187.091L139.667 178.445C136.273 176.473 132.482 175.543 128.432 175.543V185.543ZM134.683 187.115C136.222 187.99 137.347 189.273 138.087 191.219L147.434 187.667C145.919 183.68 143.306 180.513 139.624 178.421L134.683 187.115ZM138.064 191.159L158 245.716L167.393 242.284L147.457 187.727L138.064 191.159ZM162.697 239H142.316V249H162.697V239ZM147.089 242.513L143.707 231.655L134.16 234.629L137.542 245.487L147.089 242.513ZM138.934 228.142H117.663V238.142H138.934V228.142ZM112.911 231.584L109.351 242.442L118.854 245.558L122.414 234.7L112.911 231.584ZM114.103 239H94.1665V249H114.103V239ZM121.668 223.457H134.929V213.457H121.668V223.457ZM139.732 217.069L133.947 197.044L124.34 199.82L130.125 219.845L139.732 217.069ZM133.887 196.851C133.584 195.942 132.836 194.465 131.113 193.604L126.64 202.548C125.155 201.805 124.584 200.566 124.4 200.013L133.887 196.851ZM132.412 194.54C131.294 193.423 129.846 192.898 128.432 192.898V202.898C127.957 202.898 127.4 202.817 126.819 202.585C126.233 202.35 125.736 202.006 125.341 201.612L132.412 194.54ZM128.432 192.898C126.519 192.898 125.204 193.877 124.54 194.54L131.611 201.612C131.185 202.038 130.107 202.898 128.432 202.898V192.898ZM125.839 193.604C124.116 194.465 123.368 195.942 123.065 196.851L132.552 200.013C132.368 200.566 131.797 201.805 130.312 202.548L125.839 193.604ZM123.028 196.966L116.887 216.991L126.448 219.923L132.589 199.898L123.028 196.966ZM176.278 242.932L173.691 247.211L173.749 247.246L173.808 247.279L176.278 242.932ZM170.849 236.168L166.144 237.859L166.145 237.862L170.849 236.168ZM151.269 181.7V176.7H144.158L146.564 183.391L151.269 181.7ZM171.205 181.7L175.996 180.269L174.93 176.7H171.205V181.7ZM184.466 226.111L179.675 227.542L179.89 228.26L180.306 228.885L184.466 226.111ZM184.733 226.645L179.99 228.226L180.201 228.861L180.573 229.419L184.733 226.645ZM185.801 226.111L190.544 227.692L190.574 227.604L190.6 227.515L185.801 226.111ZM198.795 181.7V176.7H195.048L193.996 180.296L198.795 181.7ZM218.909 181.7L223.617 183.385L226.009 176.7H218.909V181.7ZM199.418 236.168L204.103 237.914L204.115 237.883L204.126 237.853L199.418 236.168ZM193.811 242.932L191.341 238.585L191.319 238.597L191.298 238.609L193.811 242.932ZM185.089 240.157C182.614 240.157 180.541 239.604 178.748 238.585L173.808 247.279C177.236 249.227 181.037 250.157 185.089 250.157V240.157ZM178.865 238.653C177.354 237.74 176.257 236.429 175.553 234.474L166.145 237.862C167.577 241.84 170.099 245.039 173.691 247.211L178.865 238.653ZM175.554 234.477L155.974 180.009L146.564 183.391L166.144 237.859L175.554 234.477ZM151.269 186.7H171.205V176.7H151.269V186.7ZM166.414 183.131L179.675 227.542L189.257 224.68L175.996 180.269L166.414 183.131ZM180.306 228.885C180.212 228.743 180.089 228.524 179.99 228.226L189.476 225.064C189.259 224.41 188.958 223.835 188.626 223.337L180.306 228.885ZM180.573 229.419C180.893 229.898 182.316 231.912 185.089 231.912V221.912C186.357 221.912 187.325 222.405 187.911 222.845C188.458 223.255 188.765 223.679 188.893 223.871L180.573 229.419ZM185.089 231.912C187.292 231.912 188.863 230.665 189.694 229.419L181.374 223.871C181.63 223.487 182.069 222.973 182.761 222.558C183.488 222.122 184.299 221.912 185.089 221.912V231.912ZM189.694 229.419C190.026 228.921 190.327 228.346 190.544 227.692L181.058 224.53C181.157 224.232 181.28 224.013 181.374 223.871L189.694 229.419ZM190.6 227.515L203.594 183.104L193.996 180.296L181.002 224.707L190.6 227.515ZM198.795 186.7H218.909V176.7H198.795V186.7ZM214.201 180.015L194.71 234.483L204.126 237.853L223.617 183.385L214.201 180.015ZM194.733 234.422C193.982 236.437 192.851 237.727 191.341 238.585L196.281 247.279C199.993 245.17 202.599 241.951 204.103 237.914L194.733 234.422ZM191.298 238.609C189.589 239.603 187.565 240.157 185.089 240.157V250.157C189.139 250.157 192.931 249.227 196.324 247.255L191.298 238.609ZM221.736 244H216.736V249H221.736V244ZM221.736 228.959V223.959H216.736V228.959H221.736ZM231.437 228.959V233.959H236.437V228.959H231.437ZM231.437 196.741H236.437V191.741H231.437V196.741ZM221.736 196.741H216.736V201.741H221.736V196.741ZM221.736 181.7V176.7H216.736V181.7H221.736ZM260.451 181.7H265.451V176.7H260.451V181.7ZM260.451 196.741V201.741H265.451V196.741H260.451ZM250.661 196.741V191.741H245.661V196.741H250.661ZM250.661 228.959H245.661V233.959H250.661V228.959ZM260.451 228.959H265.451V223.959H260.451V228.959ZM260.451 244V249H265.451V244H260.451ZM226.736 244V228.959H216.736V244H226.736ZM221.736 233.959H231.437V223.959H221.736V233.959ZM236.437 228.959V196.741H226.437V228.959H236.437ZM231.437 191.741H221.736V201.741H231.437V191.741ZM226.736 196.741V181.7H216.736V196.741H226.736ZM221.736 186.7H260.451V176.7H221.736V186.7ZM255.451 181.7V196.741H265.451V181.7H255.451ZM260.451 191.741H250.661V201.741H260.451V191.741ZM245.661 196.741V228.959H255.661V196.741H245.661ZM250.661 233.959H260.451V223.959H250.661V233.959ZM255.451 228.959V244H265.451V228.959H255.451ZM260.451 239H221.736V249H260.451V239ZM288.223 242.932L285.636 247.211L285.694 247.246L285.753 247.279L288.223 242.932ZM282.794 236.168L278.089 237.859L278.09 237.862L282.794 236.168ZM263.214 181.7V176.7H256.104L258.509 183.391L263.214 181.7ZM283.15 181.7L287.941 180.269L286.876 176.7H283.15V181.7ZM296.411 226.111L291.62 227.542L291.835 228.26L292.251 228.885L296.411 226.111ZM296.678 226.645L291.935 228.226L292.147 228.861L292.518 229.419L296.678 226.645ZM297.746 226.111L302.49 227.692L302.519 227.604L302.545 227.515L297.746 226.111ZM310.74 181.7V176.7H306.994L305.942 180.296L310.74 181.7ZM330.854 181.7L335.562 183.385L337.954 176.7H330.854V181.7ZM311.363 236.168L316.049 237.914L316.06 237.883L316.071 237.853L311.363 236.168ZM305.756 242.932L303.286 238.585L303.265 238.597L303.243 238.609L305.756 242.932ZM297.034 240.157C294.56 240.157 292.487 239.604 290.693 238.585L285.753 247.279C289.181 249.227 292.982 250.157 297.034 250.157V240.157ZM290.81 238.653C289.3 237.74 288.202 236.429 287.499 234.474L278.09 237.862C279.522 241.84 282.044 245.039 285.636 247.211L290.81 238.653ZM287.5 234.477L267.92 180.009L258.509 183.391L278.089 237.859L287.5 234.477ZM263.214 186.7H283.15V176.7H263.214V186.7ZM278.359 183.131L291.62 227.542L301.202 224.68L287.941 180.269L278.359 183.131ZM292.251 228.885C292.157 228.743 292.034 228.524 291.935 228.226L301.422 225.064C301.204 224.41 300.903 223.835 300.572 223.337L292.251 228.885ZM292.518 229.419C292.838 229.898 294.261 231.912 297.034 231.912V221.912C298.303 221.912 299.27 222.405 299.856 222.845C300.403 223.255 300.71 223.679 300.839 223.871L292.518 229.419ZM297.034 231.912C299.238 231.912 300.809 230.665 301.64 229.419L293.319 223.871C293.575 223.487 294.014 222.973 294.707 222.558C295.433 222.122 296.245 221.912 297.034 221.912V231.912ZM301.64 229.419C301.971 228.921 302.272 228.346 302.49 227.692L293.003 224.53C293.102 224.232 293.225 224.013 293.319 223.871L301.64 229.419ZM302.545 227.515L315.539 183.104L305.942 180.296L292.948 224.707L302.545 227.515ZM310.74 186.7H330.854V176.7H310.74V186.7ZM326.147 180.015L306.656 234.483L316.071 237.853L335.562 183.385L326.147 180.015ZM306.678 234.422C305.927 236.437 304.796 237.727 303.286 238.585L308.226 247.279C311.938 245.17 314.545 241.951 316.049 237.914L306.678 234.422ZM303.243 238.609C301.534 239.603 299.511 240.157 297.034 240.157V250.157C301.085 250.157 304.876 249.227 308.269 247.255L303.243 238.609Z" fill="url(#paint0_linear_3_86)"/>
</g>
<defs>
<linearGradient id="paint0_linear_3_86" x1="5.81506e-06" y1="141.5" x2="425" y2="141.5" gradientUnits="userSpaceOnUse">
<stop offset="0.4301" stop-color="#D53C2D"/>
<stop offset="1" stop-color="#340135"/>
</linearGradient>
</defs>
</svg>
